<svg width="385" height="358" viewBox="0 0 385 358" fill="none" xmlns="http://www.w3.org/2000/svg">
<path d="M-57 143.934L-55.853 143.145L71.0685 143.181C82.9506 140.671 92.9509 132.475 102.378 125.213C142.952 93.8492 178.635 56.2988 220.052 25.9214C230.823 18.0133 241.629 10.392 254.264 5.71167C287.455 -6.60785 323.98 0.690611 344.518 30.6376L384.322 30.799C386.401 33.5965 383.229 34.6903 381.132 35.8739C372.512 40.7336 362.493 44.2124 353.532 48.5162C352.618 48.9645 348.299 50.9729 347.995 51.493C340.629 89.0433 332.869 127.096 317.295 162.189C306.578 186.344 293.065 206.733 271.415 222.352C246.504 240.321 215.804 248.229 185.194 247.942L222.847 357.096H198.868L156.86 236.519C157.057 235.676 160.247 234.224 161.107 233.793C167.272 230.763 173.903 228.772 180.032 225.634C212.148 209.172 235.249 178.974 250.411 146.893C251.253 145.118 252.293 143.002 252.974 141.191C253.171 140.635 254.264 137.64 253.816 137.371C252.884 136.833 252.149 137.64 251.63 138.303C247.579 143.486 244.622 149.708 240.859 155.142C204.012 208.275 150.014 227.194 87.0726 228.611C53.2006 229.364 19.4181 227.571 -14.418 227.696C-14.7944 227.212 -16.1744 226.387 -15.8518 225.76L12.1419 195.561C-19.0597 196.942 -49.1861 176.625 -56.9821 146.014V143.952L-57 143.934ZM301.775 32.9688C302.187 32.4129 300.108 31.6239 299.785 31.4805C283.53 24.702 265.913 42.993 274.91 58.9528C281.2 70.0888 294.785 72.689 304.624 64.3325C312.133 57.9486 313.603 48.2472 308.746 39.6935C307.993 38.9582 308.262 41.935 308.226 42.1323C307.599 47.3327 306.147 51.0088 300.341 51.5288C289.427 52.4972 286.953 37.0036 296.129 33.9013C298.136 33.2199 299.911 33.8834 301.792 32.9868L301.775 32.9688Z" fill="white"/>
<path d="M248.21 353.727L216.097 263.312L237.682 258.865L272.502 353.727H248.21Z" fill="white"/>
</svg>
