<svg width="20" height="20" viewBox="0 0 20 20" fill="none" xmlns="http://www.w3.org/2000/svg">
<g clip-path="url(#clip0_1_1078)">
<path d="M9.95349 2C8.73226 2 7.56105 2.48513 6.69751 3.34867C5.83397 4.21221 5.34884 5.38342 5.34884 6.60465C5.34884 7.82588 5.83397 8.99709 6.69751 9.86063C7.56105 10.7242 8.73226 11.2093 9.95349 11.2093C11.1747 11.2093 12.3459 10.7242 13.2095 9.86063C14.073 8.99709 14.5581 7.82588 14.5581 6.60465C14.5581 5.38342 14.073 4.21221 13.2095 3.34867C12.3459 2.48513 11.1747 2 9.95349 2ZM10.7907 15.3953C10.7907 14.7907 10.9098 14.1919 11.1412 13.6332C11.3726 13.0746 11.7118 12.5669 12.1394 12.1394C12.5669 11.7118 13.0746 11.3726 13.6332 11.1412C14.1919 10.9098 14.7907 10.7907 15.3953 10.7907C16 10.7907 16.5988 10.9098 17.1575 11.1412C17.7161 11.3726 18.2237 11.7118 18.6513 12.1394C19.0789 12.5669 19.4181 13.0746 19.6495 13.6332C19.8809 14.1919 20 14.7907 20 15.3953C20 16.6166 19.5149 17.7878 18.6513 18.6513C17.7878 19.5149 16.6166 20 15.3953 20C14.1741 20 13.0029 19.5149 12.1394 18.6513C11.2758 17.7878 10.7907 16.6166 10.7907 15.3953ZM15.3953 12.4651C14.8878 12.4649 14.3889 12.5965 13.9475 12.8471C13.5061 13.0977 13.1374 13.4586 12.8774 13.8946C12.6175 14.3305 12.4752 14.8265 12.4646 15.3339C12.4539 15.8414 12.5753 16.3429 12.8167 16.7893L16.7893 12.8176C16.3611 12.5861 15.8821 12.465 15.3953 12.4651ZM17.974 14.0014L14.0014 17.9731C14.5566 18.2741 15.1943 18.3877 15.8193 18.2968C16.4443 18.206 17.0233 17.9157 17.4699 17.4691C17.9165 17.0225 18.2068 16.4435 18.2977 15.8185C18.3885 15.1935 18.275 14.5566 17.974 14.0014ZM10.5856 12.0465C9.89999 13.0285 9.53316 14.1977 9.53488 15.3953C9.53488 16.6403 9.92335 17.7948 10.5856 18.7442H2V17.0698C2 15.7375 2.52923 14.4598 3.47128 13.5178C4.41332 12.5757 5.69101 12.0465 7.02326 12.0465H10.5856Z" fill="#949494"/>
</g>
<defs>
<clipPath id="clip0_1_1078">
<rect width="20" height="20" fill="white"/>
</clipPath>
</defs>
</svg>
