<svg width="20" height="20" viewBox="0 0 20 20" fill="none" xmlns="http://www.w3.org/2000/svg">
<path d="M15.7705 2.61407C15.5362 2.37962 15.2579 2.19365 14.9517 2.06679C14.6455 1.93993 14.3172 1.87468 13.9858 1.87476C13.6543 1.87483 13.3261 1.94024 13.0199 2.06724C12.7137 2.19424 12.4356 2.38034 12.2013 2.6149L4.27884 10.5482C3.80679 11.0214 3.54158 11.6624 3.54134 12.3307V14.9999C3.54134 15.3449 3.82134 15.6249 4.16634 15.6249H6.85217C7.52134 15.6249 8.16301 15.3582 8.63551 14.8857L16.5522 6.96407C17.0244 6.49071 17.2896 5.84937 17.2896 5.18074C17.2896 4.5121 17.0244 3.87076 16.5522 3.3974L15.7705 2.61407ZM3.33301 16.8749C3.16725 16.8749 3.00828 16.9407 2.89107 17.058C2.77386 17.1752 2.70801 17.3341 2.70801 17.4999C2.70801 17.6657 2.77386 17.8246 2.89107 17.9418C3.00828 18.0591 3.16725 18.1249 3.33301 18.1249H16.6663C16.8321 18.1249 16.9911 18.0591 17.1083 17.9418C17.2255 17.8246 17.2913 17.6657 17.2913 17.4999C17.2913 17.3341 17.2255 17.1752 17.1083 17.058C16.9911 16.9407 16.8321 16.8749 16.6663 16.8749H3.33301Z" fill="#444444"/>
</svg>
