<svg width="20" height="20" viewBox="0 0 20 20" fill="none" xmlns="http://www.w3.org/2000/svg">
<path d="M15.8337 2.4999C16.4241 2.49902 16.9957 2.70712 17.4474 3.08734C17.8991 3.46756 18.2016 3.99536 18.3014 4.57726C18.4012 5.15916 18.2919 5.75761 17.9927 6.26661C17.6936 6.77561 17.2239 7.16232 16.667 7.35824V10.8332C16.667 12.1593 16.1402 13.4311 15.2025 14.3688C14.2648 15.3065 12.9931 15.8332 11.667 15.8332H11.1795L12.2562 16.9107C12.3996 17.0542 12.4858 17.2451 12.4986 17.4477C12.5113 17.6502 12.4497 17.8504 12.3253 18.0107L12.2562 18.0891C12.0999 18.2453 11.888 18.3331 11.667 18.3331C11.446 18.3331 11.2341 18.2453 11.0778 18.0891L8.61199 15.6232C8.52865 15.5486 8.4612 15.4579 8.41366 15.3566L8.38199 15.2807L8.35866 15.2024C8.32614 15.0783 8.3233 14.9483 8.35037 14.823C8.37744 14.6976 8.43367 14.5803 8.51449 14.4807L8.57783 14.4107L11.0778 11.9107C11.235 11.7589 11.4455 11.6749 11.664 11.6768C11.8825 11.6787 12.0915 11.7664 12.246 11.9209C12.4005 12.0754 12.4882 12.2844 12.4901 12.5029C12.492 12.7214 12.408 12.9319 12.2562 13.0891L11.1787 14.1666H11.667C12.5222 14.1666 13.3447 13.8379 13.9643 13.2485C14.584 12.6591 14.9534 11.854 14.9962 10.9999L15.0003 10.8332V7.3574C14.5128 7.18505 14.0908 6.86577 13.7923 6.44356C13.4938 6.02135 13.3336 5.51697 13.3337 4.9999L13.3378 4.85324C13.3752 4.21666 13.6545 3.61844 14.1184 3.18097C14.5824 2.74351 15.196 2.49987 15.8337 2.4999ZM8.92283 1.91074L11.4228 4.41074C11.526 4.51157 11.6007 4.63795 11.6392 4.77701C11.6777 4.91607 11.6787 5.06285 11.642 5.2024L11.6337 5.22824L11.6312 5.24324L11.6245 5.25824L11.6187 5.28074L11.6053 5.3099L11.597 5.33657L11.5912 5.3449L11.587 5.35657C11.5406 5.45624 11.4748 5.54574 11.3937 5.6199L8.92283 8.08907C8.77933 8.23255 8.58842 8.31874 8.38589 8.33148C8.18337 8.34421 7.98316 8.28261 7.82283 8.15824L7.74449 8.08907C7.58827 7.9328 7.5005 7.72087 7.5005 7.4999C7.5005 7.27893 7.58827 7.06701 7.74449 6.91074L8.82033 5.83324H8.33366C7.47846 5.83324 6.65597 6.16193 6.03632 6.75134C5.41666 7.34075 5.04725 8.14577 5.00449 8.9999L5.00033 9.16657V12.6424C5.43273 12.7951 5.81485 13.0637 6.10489 13.4188C6.39492 13.774 6.58172 14.2021 6.64485 14.6563C6.70798 15.1105 6.64501 15.5733 6.46283 15.9942C6.28065 16.415 5.98627 16.7776 5.61188 17.0424C5.23749 17.3072 4.7975 17.4639 4.34003 17.4955C3.88255 17.5271 3.4252 17.4323 3.01799 17.2214C2.61077 17.0106 2.26936 16.6918 2.03109 16.3C1.79282 15.9082 1.66686 15.4585 1.66699 14.9999L1.67116 14.8532C1.69978 14.3619 1.87281 13.8899 2.16856 13.4964C2.4643 13.103 2.86961 12.8056 3.33366 12.6416V9.16657C3.33366 7.84049 3.86044 6.56872 4.79813 5.63104C5.73581 4.69335 7.00758 4.16657 8.33366 4.16657H8.82116L7.74449 3.08907C7.60101 2.94558 7.51482 2.75466 7.50209 2.55214C7.48935 2.34962 7.55095 2.14941 7.67533 1.98907L7.74449 1.91074C7.90077 1.75451 8.11269 1.66675 8.33366 1.66675C8.55463 1.66675 8.76655 1.75451 8.92283 1.91074Z" fill="#949494"/>
</svg>
