<svg width="40" height="40" viewBox="0 0 40 40" fill="none" xmlns="http://www.w3.org/2000/svg">
<path d="M20 0C21.8472 0 23.6181 0.236111 25.3125 0.708333C27.0069 1.18056 28.6042 1.84722 30.1042 2.70833C31.6042 3.56944 32.9514 4.61111 34.1458 5.83333C35.3403 7.05556 36.3819 8.40972 37.2708 9.89583C38.1597 11.3819 38.8333 12.9722 39.2917 14.6667C39.75 16.3611 39.9861 18.1389 40 20C40 21.8472 39.7639 23.6181 39.2917 25.3125C38.8194 27.0069 38.1528 28.6042 37.2917 30.1042C36.4306 31.6042 35.3889 32.9514 34.1667 34.1458C32.9444 35.3403 31.5903 36.3819 30.1042 37.2708C28.6181 38.1597 27.0278 38.8333 25.3333 39.2917C23.6389 39.75 21.8611 39.9861 20 40C18.1528 40 16.3819 39.7639 14.6875 39.2917C12.9931 38.8194 11.3958 38.1528 9.89583 37.2917C8.39583 36.4306 7.04861 35.3889 5.85416 34.1667C4.65972 32.9444 3.61805 31.5903 2.72916 30.1042C1.84027 28.6181 1.16666 27.0278 0.708332 25.3333C0.25 23.6389 0.0138893 21.8611 0 20C0 18.1528 0.236111 16.3819 0.708332 14.6875C1.18055 12.9931 1.84722 11.3958 2.70833 9.89583C3.56944 8.39583 4.61111 7.04861 5.83333 5.85417C7.05555 4.65972 8.40972 3.61806 9.89583 2.72917C11.3819 1.84028 12.9722 1.16667 14.6667 0.708333C16.3611 0.25 18.1389 0.0138889 20 0ZM20 37.3333C21.5972 37.3333 23.1319 37.125 24.6042 36.7083C26.0764 36.2917 27.4514 35.7083 28.7292 34.9583C30.0069 34.2083 31.1806 33.3056 32.25 32.25C33.3194 31.1944 34.2222 30.0278 34.9583 28.75C35.6944 27.4722 36.2778 26.0903 36.7083 24.6042C37.1389 23.1181 37.3472 21.5833 37.3333 20C37.3333 18.4028 37.125 16.8681 36.7083 15.3958C36.2917 13.9236 35.7083 12.5486 34.9583 11.2708C34.2083 9.99306 33.3056 8.81944 32.25 7.75C31.1944 6.68056 30.0278 5.77778 28.75 5.04167C27.4722 4.30556 26.0903 3.72222 24.6042 3.29167C23.1181 2.86111 21.5833 2.65278 20 2.66667C18.4028 2.66667 16.8681 2.875 15.3958 3.29167C13.9236 3.70833 12.5486 4.29167 11.2708 5.04167C9.99306 5.79167 8.81944 6.69444 7.75 7.75C6.68055 8.80556 5.77778 9.97222 5.04166 11.25C4.30555 12.5278 3.72222 13.9097 3.29166 15.3958C2.86111 16.8819 2.65277 18.4167 2.66666 20C2.66666 21.5972 2.875 23.1319 3.29166 24.6042C3.70833 26.0764 4.29166 27.4514 5.04166 28.7292C5.79166 30.0069 6.69444 31.1806 7.75 32.25C8.80556 33.3194 9.97222 34.2222 11.25 34.9583C12.5278 35.6944 13.9097 36.2778 15.3958 36.7083C16.8819 37.1389 18.4167 37.3472 20 37.3333ZM15.1458 18.6667H29.3333V21.3333H15.1458L20.9375 27.0417L19.0625 28.9583L10.0208 20L19.0625 11.0417L20.9375 12.9583L15.1458 18.6667Z" fill="#949494"/>
</svg>
