<svg width="9" height="11" viewBox="0 0 9 11" fill="none" xmlns="http://www.w3.org/2000/svg">
<path d="M4.5 6C5.32843 6 6 5.32843 6 4.5C6 3.67157 5.32843 3 4.5 3C3.67157 3 3 3.67157 3 4.5C3 5.32843 3.67157 6 4.5 6Z" stroke="#949494" stroke-linecap="round" stroke-linejoin="round"/>
<path d="M4.5 0.5C3.43913 0.5 2.42172 0.921427 1.67157 1.67157C0.921427 2.42172 0.5 3.43913 0.5 4.5C0.5 5.446 0.701 6.065 1.25 6.75L4.5 10.5L7.75 6.75C8.299 6.065 8.5 5.446 8.5 4.5C8.5 3.43913 8.07857 2.42172 7.32843 1.67157C6.57828 0.921427 5.56087 0.5 4.5 0.5Z" stroke="#949494" stroke-linecap="round" stroke-linejoin="round"/>
</svg>
