<svg width="13" height="10" viewBox="0 0 13 10" fill="none" xmlns="http://www.w3.org/2000/svg">
<path d="M0.833333 0C0.61232 0 0.400358 0.0877975 0.244078 0.244078C0.0877975 0.400358 0 0.61232 0 0.833333C0 1.05435 0.0877975 1.26631 0.244078 1.42259C0.400358 1.57887 0.61232 1.66667 0.833333 1.66667C1.05435 1.66667 1.26631 1.57887 1.42259 1.42259C1.57887 1.26631 1.66667 1.05435 1.66667 0.833333C1.66667 0.61232 1.57887 0.400358 1.42259 0.244078C1.26631 0.0877975 1.05435 0 0.833333 0ZM3.75 0C3.52899 0 3.31702 0.0877975 3.16074 0.244078C3.00446 0.400358 2.91667 0.61232 2.91667 0.833333C2.91667 1.05435 3.00446 1.26631 3.16074 1.42259C3.31702 1.57887 3.52899 1.66667 3.75 1.66667H12.0833C12.3043 1.66667 12.5163 1.57887 12.6726 1.42259C12.8289 1.26631 12.9167 1.05435 12.9167 0.833333C12.9167 0.61232 12.8289 0.400358 12.6726 0.244078C12.5163 0.0877975 12.3043 0 12.0833 0H3.75ZM3.83333 4.16667C3.59022 4.16667 3.35706 4.26324 3.18515 4.43515C3.01324 4.60706 2.91667 4.84022 2.91667 5.08333C2.91667 5.32645 3.01324 5.55961 3.18515 5.73151C3.35706 5.90342 3.59022 6 3.83333 6H12C12.2431 6 12.4763 5.90342 12.6482 5.73151C12.8201 5.55961 12.9167 5.32645 12.9167 5.08333C12.9167 4.84022 12.8201 4.60706 12.6482 4.43515C12.4763 4.26324 12.2431 4.16667 12 4.16667H3.83333ZM2.91667 9.16667C2.91667 8.94565 3.00446 8.73369 3.16074 8.57741C3.31702 8.42113 3.52899 8.33333 3.75 8.33333H12.0833C12.3043 8.33333 12.5163 8.42113 12.6726 8.57741C12.8289 8.73369 12.9167 8.94565 12.9167 9.16667C12.9167 9.38768 12.8289 9.59964 12.6726 9.75592C12.5163 9.9122 12.3043 10 12.0833 10H3.75C3.52899 10 3.31702 9.9122 3.16074 9.75592C3.00446 9.59964 2.91667 9.38768 2.91667 9.16667ZM0 5C0 4.77899 0.0877975 4.56702 0.244078 4.41074C0.400358 4.25446 0.61232 4.16667 0.833333 4.16667C1.05435 4.16667 1.26631 4.25446 1.42259 4.41074C1.57887 4.56702 1.66667 4.77899 1.66667 5C1.66667 5.22101 1.57887 5.43297 1.42259 5.58926C1.26631 5.74554 1.05435 5.83333 0.833333 5.83333C0.61232 5.83333 0.400358 5.74554 0.244078 5.58926C0.0877975 5.43297 0 5.22101 0 5ZM0.833333 8.33333C0.61232 8.33333 0.400358 8.42113 0.244078 8.57741C0.0877975 8.73369 0 8.94565 0 9.16667C0 9.38768 0.0877975 9.59964 0.244078 9.75592C0.400358 9.9122 0.61232 10 0.833333 10C1.05435 10 1.26631 9.9122 1.42259 9.75592C1.57887 9.59964 1.66667 9.38768 1.66667 9.16667C1.66667 8.94565 1.57887 8.73369 1.42259 8.57741C1.26631 8.42113 1.05435 8.33333 0.833333 8.33333Z" fill="#444444"/>
</svg>
