<svg width="18" height="18" viewBox="0 0 18 18" fill="none" xmlns="http://www.w3.org/2000/svg">
<path d="M15.8823 4.00598L16.2565 2.68988C16.2907 2.56983 16.3467 2.45818 16.4211 2.36132C16.4956 2.26445 16.5871 2.18426 16.6904 2.12533C16.7938 2.0664 16.9069 2.02988 17.0234 2.01785C17.1399 2.00583 17.2575 2.01854 17.3694 2.05525C17.4813 2.09196 17.5854 2.15196 17.6757 2.23182C17.766 2.31168 17.8408 2.40984 17.8957 2.52069C17.9506 2.63154 17.9847 2.75292 17.9959 2.87788C18.0071 3.00285 17.9953 3.12895 17.961 3.24901L16.9185 6.90484C16.8494 7.14711 16.6935 7.35005 16.485 7.46905C16.2765 7.58805 16.0324 7.61338 15.8065 7.53947L12.3983 6.42122C12.2841 6.38672 12.1774 6.32807 12.0846 6.24874C11.9917 6.1694 11.9146 6.07096 11.8577 5.95921C11.8008 5.84745 11.7653 5.72463 11.7533 5.59796C11.7413 5.47129 11.753 5.34332 11.7877 5.22156C11.8225 5.09981 11.8795 4.98672 11.9555 4.88895C12.0316 4.79118 12.1251 4.71069 12.2305 4.6522C12.3359 4.59372 12.4512 4.55843 12.5696 4.5484C12.6879 4.53836 12.8069 4.55379 12.9196 4.59378L14.4094 5.08218C13.7508 4.01066 12.8321 3.15217 11.7524 2.59916C10.6726 2.04616 9.47271 1.8196 8.28183 1.94388C7.09094 2.06816 5.95422 2.53857 4.9941 3.30446C4.03397 4.07034 3.28683 5.10267 2.83312 6.29027L2.60146 6.89528C2.55932 7.01471 2.49531 7.12387 2.41319 7.21631C2.33107 7.30876 2.23251 7.38262 2.12334 7.43353C2.01417 7.48444 1.89659 7.51136 1.77755 7.51272C1.65851 7.51407 1.54043 7.48983 1.43028 7.44141C1.32012 7.393 1.22013 7.3214 1.1362 7.23084C1.05227 7.14029 0.986108 7.03261 0.941622 6.91416C0.897137 6.79572 0.875229 6.66892 0.877191 6.54124C0.879154 6.41357 0.904948 6.28761 0.95305 6.1708L1.18472 5.5658C1.76053 4.05881 2.70813 2.74852 3.92578 1.77561C5.14342 0.802701 6.58512 0.203923 8.09607 0.0435687C9.60703 -0.116785 11.1302 0.167341 12.5019 0.865441C13.8737 1.56354 15.0423 2.64924 15.8823 4.00598ZM2.05169 14.1496L1.76032 15.4026C1.73425 15.5269 1.68529 15.6443 1.61631 15.748C1.54733 15.8517 1.45973 15.9395 1.35864 16.0064C1.25756 16.0732 1.14504 16.1177 1.0277 16.1372C0.91036 16.1568 0.79056 16.151 0.675343 16.1201C0.560127 16.0893 0.451818 16.0341 0.356783 15.9577C0.261748 15.8813 0.181903 15.7853 0.121941 15.6754C0.0619783 15.5655 0.0231088 15.4438 0.00761602 15.3175C-0.0078767 15.1912 0.000320022 15.0628 0.0317245 14.94L0.893351 11.2316C0.92242 11.1054 0.975208 10.9868 1.04848 10.8832C1.12176 10.7795 1.21397 10.6931 1.31949 10.629C1.42501 10.5649 1.5416 10.5246 1.66214 10.5106C1.78268 10.4965 1.90462 10.509 2.0205 10.5473L5.43137 11.4591C5.66071 11.5204 5.85795 11.677 5.97968 11.8943C6.10141 12.1117 6.13767 12.372 6.08048 12.618C6.0233 12.864 5.87734 13.0755 5.67473 13.2061C5.47212 13.3367 5.22945 13.3756 5.00011 13.3142L3.40873 12.8889C4.08905 14.0061 5.05068 14.8934 6.1821 15.4481C7.31352 16.0028 8.56835 16.202 9.80105 16.0227C11.0338 15.8435 12.1938 15.293 13.1467 14.4351C14.0995 13.5773 14.8062 12.4473 15.1846 11.1762C15.2564 10.9346 15.4148 10.7335 15.6248 10.6172C15.7288 10.5596 15.8424 10.5246 15.959 10.514C16.0757 10.5035 16.1931 10.5177 16.3046 10.5559C16.4161 10.594 16.5195 10.6554 16.609 10.7364C16.6984 10.8174 16.772 10.9166 16.8257 11.0281C16.8794 11.1397 16.9121 11.2615 16.9219 11.3866C16.9317 11.5117 16.9185 11.6377 16.8829 11.7573C16.512 13.0055 15.8906 14.1514 15.0624 15.1143C14.2342 16.0771 13.2193 16.8336 12.0891 17.3304C10.3283 18.1042 8.37412 18.2107 6.54922 17.6324C4.72431 17.0541 3.13783 15.8256 2.05169 14.1496Z" fill="#949494"/>
</svg>
