<svg width="23" height="23" viewBox="0 0 23 23" fill="none" xmlns="http://www.w3.org/2000/svg">
<path fill-rule="evenodd" clip-rule="evenodd" d="M11.1111 2.22222C9.55641 2.22194 8.02881 2.62943 6.68081 3.40403C5.3328 4.17863 4.21153 5.29324 3.42892 6.63662C2.64631 7.97999 2.22972 9.50513 2.22075 11.0598C2.21178 12.6145 2.61073 14.1444 3.37779 15.4967C3.89625 14.8229 4.56271 14.2773 5.32566 13.9022C6.08861 13.5271 6.92761 13.3324 7.77779 13.3333H14.4445C15.2946 13.3324 16.1336 13.5271 16.8966 13.9022C17.6595 14.2773 18.326 14.8229 18.8445 15.4967C19.6115 14.1444 20.0105 12.6145 20.0015 11.0598C19.9925 9.50513 19.5759 7.97999 18.7933 6.63662C18.0107 5.29324 16.8894 4.17863 15.5414 3.40403C14.1934 2.62943 12.6658 2.22194 11.1111 2.22222ZM19.9367 17.8622C20.0759 17.6807 20.2093 17.4948 20.3367 17.3044C21.5685 15.4741 22.2251 13.3174 22.2222 11.1111C22.2222 4.97444 17.2478 0 11.1111 0C4.97446 0 1.13949e-05 4.97444 1.13949e-05 11.1111C-0.00349008 13.552 0.800056 15.9255 2.28557 17.8622L2.28001 17.8822L2.67446 18.3411C3.71655 19.5595 5.01044 20.5373 6.46694 21.2074C7.92343 21.8774 9.5079 22.2236 11.1111 22.2222C11.3511 22.2222 11.5896 22.2148 11.8267 22.2C13.8316 22.0736 15.7641 21.4033 17.4167 20.2611C18.207 19.7159 18.9234 19.0705 19.5478 18.3411L19.9422 17.8822L19.9367 17.8622ZM11.1111 4.44444C10.2271 4.44444 9.37922 4.79563 8.7541 5.42076C8.12898 6.04588 7.77779 6.89372 7.77779 7.77778C7.77779 8.66183 8.12898 9.50968 8.7541 10.1348C9.37922 10.7599 10.2271 11.1111 11.1111 11.1111C11.9952 11.1111 12.843 10.7599 13.4681 10.1348C14.0933 9.50968 14.4445 8.66183 14.4445 7.77778C14.4445 6.89372 14.0933 6.04588 13.4681 5.42076C12.843 4.79563 11.9952 4.44444 11.1111 4.44444Z" fill="white"/>
</svg>
